<svg width="512" height="512" xmlns="http://www.w3.org/2000/svg">
<!--http://svgtopng.com/ru/-->
 <g>
  <title>background</title>
  <rect fill="none" id="canvas_background" height="402" width="582" y="-1" x="-1"/>
 </g>
 <g>
  <title>Layer 1</title>
  <g transform="rotate(90 255.25627136230466,256.02389526367193) " id="layer1">
   <g id="g4295">
    <path fill="#0099cc" fill-rule="nonzero" stroke-width="0.1" id="path4400-3-2" d="m217.13642,146.134347c-0.0357,0.0006 -0.14981,0.0181 -0.24,0.02c-0.87778,0.0194 -3.99768,0.0945 -5.7,0.48c-1.90342,0.43104 -3.80556,1.01751 -5.48,2.02c-2.50472,1.49965 -4.61679,3.64138 -6.56,5.82c-1.62169,1.81818 -2.86241,3.94371 -4.2,5.98c-0.53772,0.81863 -1.23176,1.58394 -1.52,2.52c-0.0398,0.12911 -0.093,0.24477 -0.12,0.38c-31.25675,0.0882 -62.51305,0.31019 -93.76,1.02c-18.7622,0.62707 -37.16747,10.05239 -47.43999,25.98c-4.40178,5.13425 -7.21407,11.19834 -8.48,17.76c-7.31798,19.75288 -4.19106,41.28355 -4.86,61.9c-0.62141,16.44047 2.83137,32.97476 10.28,47.6c8.6601,13.64969 21.60654,25.82672 38.16,28.3c23.1906,4.82131 47.07591,2.08365 70.57999,2.88c11.85404,-0.0263 23.70564,-0.0182 35.56,-0.02c0.0203,0.0847 0.0548,0.15807 0.08,0.24c0.28824,0.93606 0.98228,1.70139 1.52,2.52c1.33759,2.03628 2.57831,4.16185 4.2,5.98c1.94321,2.17863 4.05528,4.32039 6.56,5.82c1.67444,1.00252 3.57658,1.58899 5.48,2.02c1.70232,0.38547 4.82222,0.46069 5.7,0.48c0.39521,0.0811 0.81989,0.0108 1.1,-0.2c0.28011,-0.21079 0.36846,-0.41857 0.44,-0.9c0.0715,-0.48141 -0.0006,-0.68937 -0.32,-1.9c-0.31915,-1.21063 -1.08197,-3.31953 -1.9,-5.24c-0.81803,-1.92046 -2.17583,-4.55649 -3.08,-6.22c-0.57813,-1.06366 -1.04799,-1.86772 -1.5,-2.6c15.42148,0.007 30.83838,0.007 46.26,0.02c0.0542,0.0712 0.11147,0.14771 0.18,0.22c0.35576,0.37523 0.87286,0.87216 1.86,1.22c0.98715,0.34784 1.03685,0.25022 4.04,0.4c3.00315,0.14979 10.61173,0.0969 12.84002,-0.04c2.22829,-0.13693 2.62509,-0.17186 3.72,-0.6c0.88435,-0.3458 1.54445,-0.51239 1.68,-1.18c23.49574,0.006 47.00493,-0.021 70.50003,-0.12c0.86375,0.29284 1.05882,0.21734 3.92,0.36c3.00288,0.14979 10.63168,0.0969 12.85997,-0.04c1.8375,-0.11291 2.43552,-0.16667 3.2,-0.42c19.41229,-0.12141 38.82912,-0.30509 58.24,-0.58c13.57414,0.032 27.06349,-8.42931 31.62003,-21.48c11.63763,-28.70999 11.42835,-60.54084 10.24,-91.04c-1.52,-19.91366 -4.08928,-40.86446 -14.88,-58.06c-9.66841,-13.69542 -28.30093,-14.09957 -43.48006,-14.04c-14.29447,-0.14953 -28.58432,-0.20843 -42.88,-0.24c-0.4857,-0.0644 -1.07834,-0.11966 -2.05997,-0.18c-2.22829,-0.13683 -9.85709,-0.18976 -12.85997,-0.04c-1.97113,0.0983 -2.63309,0.0978 -3.16006,0.18c-18.30637,-0.005 -36.61344,0.0394 -54.91994,0.04c-5.43936,0.0294 -10.88083,0.0422 -16.32006,0.06c-0.11418,-0.70563 -0.79635,-0.86663 -1.69997,-1.22c-1.09491,-0.42816 -1.49171,-0.4631 -3.72,-0.6c-2.22829,-0.13689 -9.83687,-0.18982 -12.84002,-0.04c-3.00315,0.14976 -3.05285,0.0522 -4.04,0.4c-0.98714,0.34784 -1.50424,0.84477 -1.86,1.22c-0.0889,0.0938 -0.17716,0.18699 -0.24,0.28c-15.42082,0.0197 -30.8389,0.0388 -46.26,0.06c0.47103,-0.75771 0.95512,-1.58712 1.56,-2.7c0.90417,-1.66355 2.26197,-4.29949 3.08,-6.22c0.81803,-1.92045 1.58085,-4.02937 1.9,-5.24c0.3194,-1.21069 0.39154,-1.41853 0.32,-1.9c-0.0715,-0.48141 -0.15989,-0.68925 -0.44,-0.9c-0.19148,-0.14425 -0.45165,-0.21013 -0.72,-0.22c-0.0456,-0.002 -0.0939,-0.002 -0.14,0zm52.58,17.08c0.56925,-0.006 1.21616,-0.006 1.84,0.02c-0.88726,0.002 -1.77272,-0.002 -2.66,0c0.28238,-0.011 0.57178,-0.0172 0.82,-0.02zm161.62002,7.32c3.98362,-0.10006 8.47507,0.49707 10.90003,1.74c5.93658,3.04302 9.49709,7.73067 10.88,14.34c0.45127,2.15734 1.52666,5.29191 2.37997,6.98c2.53837,5.02162 4.8743,12.28169 4.66003,14.46l-0.20006,2.02l-1.97997,-1.86c-1.08813,-1.02017 -2.95002,-3.95264 -4.12,-6.52c-6.77248,-14.86119 -15.81574,-23.51737 -29.6,-28.36c-1.19942,-0.42138 -1.19046,-0.46785 -0.0602,-1.3c1.2583,-0.92616 4.04166,-1.42217 7.14003,-1.5l0.00017,0zm-214.34002,1.26c1.28877,-0.008 2.76232,-0.003 4.4,0c10.91785,0.021 29.10184,0.26157 48.16,0.66l13.59999,0.28l5.30003,8.32c2.91123,4.56694 5.37677,8.74014 5.48,9.28c0.18515,0.96863 0.13594,0.96669 -4.10003,0.9c-2.3609,-0.0372 -8.51539,-0.213 -13.65997,-0.4c-14.53322,-0.52824 -36.94353,-2.85729 -51.10002,-5.3l-5.66,-0.96l-1.82,-2.84c-1.00208,-1.55534 -2.8663,-4.27453 -4.14,-6.06c-1.27368,-1.78547 -2.38732,-3.43261 -2.48,-3.66c-0.0463,-0.11365 2.15371,-0.19541 6.02,-0.22zm-127.58,0.46c1.03944,0.00005 2.21927,-0.006 3.56,0c14.44596,0.0595 17.02516,1.16889 11.5,4.9c-3.1921,2.15562 -23.74301,14.63843 -32.05999,19.48c-7.07163,4.11661 -9.85723,6.48779 -13.02,11.08c-1.27306,1.84842 -3.20683,3.77177 -4.32,4.3c-2.06738,0.98104 -5.29153,1.26847 -6.02,0.54c-0.2256,-0.2256 -0.42,-2.03475 -0.42,-4.02c0,-3.85553 1.17127,-6.73686 5.4,-13.4c3.47964,-5.48282 10.24945,-13.16521 14.26,-16.18c2.05166,-1.54227 6.00986,-3.7001 8.8,-4.78c4.40707,-1.70571 5.04387,-1.92031 12.31999,-1.92zm217.49999,0.82c1.64902,-0.004 4.24409,0.059 8.26003,0.16c33.70726,0.84835 55.6313,1.59333 55.89997,1.88c0.45107,0.48013 1.70003,8.21307 1.70003,10.54c0,3.62553 0.2832,3.52308 -12.21997,4.18c-8.3664,0.43955 -40.07334,1.42795 -47.62003,1.48c-0.73446,0.005 -1.54112,-1.45207 -4.66003,-8.4c-2.07354,-4.61928 -3.91565,-8.75175 -4.08,-9.18c-0.17735,-0.46263 -0.0282,-0.65358 2.72,-0.66zm84.34003,4.84c0.72762,-0.0236 1.62912,0.0285 2.77997,0.12c4.51046,0.35861 15.21165,1.87641 15.80006,2.24c1.26336,0.78093 -5.23923,3.08808 -13.2,4.7c-5.92525,1.19971 -6.61395,1.27001 -8.08,0.68c-1.36211,-0.54802 -1.63193,-2.19514 -0.78003,-4.76c0.7241,-2.18021 1.29715,-2.90916 3.48,-2.98zm-238.72002,3.74c1.92495,0 55.0127,11.67285 64.22,14.12c6.20751,1.64986 17.61444,5.50446 25.34,8.56c17.578,6.95228 26.56977,9.32 35.44002,9.32c6.75187,0 7.14182,0.17929 12.68,6.1l5.69997,6.1l0,30.24l0,30.26l-5.56,5.94l-5.53997,5.92l-10.76,0.64c-8.48659,0.49582 -13.21812,1.58867 -22.44002,5.18c-22.9803,8.94935 -37.94438,13.3134 -65.84,19.26c-15.56638,3.31834 -29.53522,6.31725 -31.04,6.66c-2.20387,0.50201 -3.18789,-0.27063 -5.08,-4c-2.90944,-5.73456 -9.30603,-25.69652 -11.14,-34.78c-4.04471,-20.03301 -3.72723,-55.65604 0.64,-73.22c4.07268,-16.37935 11.41631,-36.3 13.38,-36.3zm285.20002,6.3c3.39469,-0.16631 4.42317,2.7662 8.12,9.7c10.05459,18.8585 13.09901,35.10049 12.16,65c-0.7367,23.45759 -2.7319,32.47286 -10.86003,49c-7.08256,14.40155 -7.26835,14.50003 -17.71994,9.52c-4.73773,-2.25733 -11.80845,-5.30076 -15.70003,-6.76c-3.89158,-1.45924 -7.08,-2.87539 -7.08,-3.14c0,-0.26461 1.92986,-4.29313 4.28,-8.96c7.37645,-14.64765 9.7945,-26.29157 9.72,-46.82c-0.0746,-20.54911 -2.2448,-30.75562 -9.68,-45.52c-2.45971,-4.88434 -4.29261,-9.02499 -4.08,-9.2c0.21267,-0.17501 7.53171,-3.42994 16.25997,-7.24c7.88019,-3.43972 11.93971,-5.45064 14.58003,-5.58zm-387.22001,110.9c0.48822,-0.0427 1.0925,0.0414 1.84,0.22c3.65882,0.87423 4.19325,1.29611 7.28,5.54c3.66215,5.035 5.74902,6.70139 14.84,11.96c13.47175,7.79265 31.58933,19.14478 32.23999,20.2c1.39475,2.26194 -0.26505,2.64016 -12.72,2.78c-10.28388,0.11546 -12.23454,-0.0221 -15.03999,-1.04c-9.37962,-3.40338 -16.84505,-9.75316 -23.88,-20.32c-5.17754,-7.77691 -6.40346,-10.62042 -6.42,-14.86c-0.01216,-3.10701 0.39534,-4.35201 1.86,-4.48zm409.43998,3.22l0.18003,1.84c0.21709,2.13231 -2.36992,10.22075 -4.56,14.22c-0.81773,1.49331 -1.90208,4.67187 -2.4,7.06c-2.11981,10.16655 -9.97318,16.47352 -20.26003,16.3c-2.05351,-0.0346 -4.57319,-0.25391 -5.6,-0.5c-1.02669,-0.24609 -2.40218,-0.75186 -3.05997,-1.12c-1.11949,-0.62647 -1.07507,-0.7076 0.64,-1.4c7.98688,-3.22453 12.3808,-5.8991 16.6,-10.06c5.0361,-4.96646 8.20346,-9.57455 12.29997,-17.94c1.55609,-3.17773 3.56461,-6.37662 4.48,-7.1l1.68,-1.3zm-147.92,18.66l8.72,0.1c10.58528,0.11951 31.39923,0.84934 42.66003,1.48c6.70989,0.3758 8.35859,0.59064 8.8,1.16c0.75008,0.96743 0.67104,4.78806 -0.21997,9.44l-0.76006,3.9l-1.95994,0.3c-1.89913,0.28723 -24.57369,0.96055 -51.92,1.54c-9.47449,0.20075 -13.39897,0.14826 -13.28,-0.18c0.0927,-0.25608 1.91987,-4.35166 4.05997,-9.1l3.89997,-8.64zm-25.76,0.18c4.69472,-0.008 7.74003,0.17931 7.74003,0.62c0,0.57002 -9.58381,16.05708 -10.62003,17.16c-0.51059,0.54346 -11.65154,0.83563 -60.17999,1.56l-12.7,0.2l1.78,-2.46c0.9853,-1.35083 2.97553,-4.28071 4.42,-6.5c1.60182,-2.46103 2.9892,-4.11686 3.54,-4.24c4.92828,-1.1018 23.75501,-3.61132 35.48,-4.74c10.33749,-0.99511 22.71554,-1.58634 30.53999,-1.6zm104.58003,5.28c1.80902,0.0252 4.37696,0.46624 7.88,1.26c8.77434,1.98822 13.20595,3.94811 10.28,4.56c-2.82042,0.58983 -11.11066,1.60575 -15.22003,1.86l-4.41997,0.26l-0.88,-1.44c-0.48224,-0.79289 -1.00243,-2.20768 -1.16,-3.14c-0.39418,-2.3334 0.50496,-3.40202 3.52,-3.36z"/>
   </g>
  </g>
 </g>
</svg>